<svg width="41" height="40" viewBox="0 0 41 40" fill="none" xmlns="http://www.w3.org/2000/svg">
<path d="M1.08926 10.5118C1.08926 5.0332 5.53052 0.591942 11.0091 0.591942H29.9862C35.4648 0.591942 39.9061 5.03321 39.9061 10.5118V29.4889C39.9061 34.9675 35.4648 39.4087 29.9862 39.4087H11.0091C5.53051 39.4087 1.08926 34.9675 1.08926 29.4889V10.5118Z" fill="#121217"/>
<path d="M1.08926 10.5118C1.08926 5.0332 5.53052 0.591942 11.0091 0.591942H29.9862C35.4648 0.591942 39.9061 5.03321 39.9061 10.5118V29.4889C39.9061 34.9675 35.4648 39.4087 29.9862 39.4087H11.0091C5.53051 39.4087 1.08926 34.9675 1.08926 29.4889V10.5118Z" stroke="#121217" stroke-width="0.862595"/>
<path fill-rule="evenodd" clip-rule="evenodd" d="M18.0726 10.9797C19.2573 10.3266 19.8496 10 20.5 10C21.1504 10 21.7427 10.3266 22.9274 10.9797L27.0726 13.2652C28.2572 13.9184 28.8496 14.245 29.1748 14.7829C29.5 15.3208 29.5 15.974 29.5 17.2803V21.8513C29.5 23.1576 29.5 23.8108 29.1748 24.3487C28.8496 24.8866 28.2573 25.2132 27.0726 25.8664L22.9274 28.1519C21.7427 28.805 21.1504 29.1316 20.5 29.1316C19.8496 29.1316 19.2573 28.805 18.0726 28.1519L13.9274 25.8664C13.4255 25.5896 13.3944 24.9125 13.8668 24.5898C15.4397 23.5153 17.058 22.4973 18.7188 21.5386C18.825 21.4566 18.8995 21.3429 18.9303 21.2157C18.9611 21.0885 18.9464 20.9551 18.8887 20.8369C18.8309 20.7186 18.7333 20.6222 18.6115 20.5631C18.4897 20.504 18.3507 20.4856 18.2167 20.5109C16.3724 21.1548 14.56 21.8658 12.7831 22.6412C12.1751 22.9065 11.5 22.5023 11.5 21.8513V17.2803C11.5 15.974 11.5 15.3208 11.8252 14.7829C12.1504 14.245 12.7427 13.9184 13.9273 13.2653L18.0726 10.9797ZM23.779 14.6482L23.7789 14.6484L23.4503 15.4973C23.3986 15.6307 23.3728 15.6973 23.3228 15.7469C23.3193 15.7504 23.3158 15.7537 23.3122 15.757C23.2599 15.8045 23.1897 15.829 23.0492 15.878L22.1547 16.1899C21.4525 16.4348 21.1014 16.5572 21.0876 16.7717C21.0867 16.785 21.0867 16.7984 21.0876 16.8118C21.1014 17.0262 21.4525 17.1487 22.1547 17.3936L23.0492 17.7055C23.1897 17.7545 23.2599 17.779 23.3122 17.8265C23.3158 17.8297 23.3193 17.8331 23.3228 17.8365C23.3728 17.8861 23.3986 17.9528 23.4503 18.0862L23.7789 18.9351L23.779 18.9353C24.037 19.6016 24.166 19.9347 24.392 19.9478C24.406 19.9486 24.4201 19.9486 24.4341 19.9478C24.6601 19.9347 24.7891 19.6016 25.0471 18.9353L25.0472 18.9351L25.3758 18.0862C25.4274 17.9528 25.4533 17.8861 25.5033 17.8365C25.5067 17.8331 25.5103 17.8297 25.5139 17.8265C25.5661 17.779 25.6364 17.7545 25.7769 17.7055L26.6714 17.3936C27.3736 17.1487 27.7247 17.0262 27.7385 16.8118C27.7393 16.7984 27.7393 16.785 27.7385 16.7717C27.7247 16.5572 27.3736 16.4348 26.6714 16.1899L25.7769 15.878C25.6364 15.829 25.5661 15.8045 25.5139 15.757C25.5103 15.7537 25.5067 15.7504 25.5033 15.7469C25.4533 15.6973 25.4274 15.6307 25.3758 15.4973L25.0472 14.6484L25.0471 14.6482C24.7891 13.9819 24.6601 13.6487 24.4341 13.6356C24.4201 13.6348 24.406 13.6348 24.392 13.6356C24.166 13.6487 24.037 13.9819 23.779 14.6482Z" fill="white"/>
</svg>
