<svg width="19" height="18" viewBox="0 0 19 18" fill="none" xmlns="http://www.w3.org/2000/svg">
<g id="arbitrum-arb-logo 1" clip-path="url(#clip0_922_27608)">
<rect width="17.1429" height="17.1429" transform="translate(0.929688 0.428711)" fill="white" fill-opacity="0.05"/>
<g id="Layer_x0020_1">
<g id="_2405588477232">
<g id="Group">
<g id="Group_2">
<path id="Vector" d="M2.47656 5.63984V12.3598C2.47656 12.7918 2.70285 13.1827 3.07999 13.4021L8.90171 16.7621C9.27199 16.9747 9.73142 16.9747 10.1017 16.7621L15.9234 13.4021C16.2937 13.1896 16.5268 12.7918 16.5268 12.3598V5.63984C16.5268 5.20784 16.3006 4.81698 15.9234 4.59755L10.1017 1.23755C9.73142 1.02498 9.27199 1.02498 8.90171 1.23755L3.07999 4.59755C2.70971 4.81012 2.48342 5.20784 2.48342 5.63984H2.47656Z" fill="#213147"/>
<g id="Group_3">
<g id="Group_4">
<g id="Group_5">
<path id="Vector_2" d="M10.767 10.3025L9.9373 12.5791C9.91673 12.6408 9.91673 12.7094 9.9373 12.778L11.3636 16.6934L13.0162 15.7402L11.0344 10.3025C10.9864 10.1791 10.815 10.1791 10.767 10.3025Z" fill="#12AAFF"/>
</g>
<g id="Group_6">
<path id="Vector_3" d="M12.4329 6.47636C12.3849 6.35293 12.2135 6.35293 12.1655 6.47636L11.3357 8.75293C11.3152 8.81465 11.3152 8.88322 11.3357 8.95179L13.674 15.3632L15.3266 14.4101L12.4329 6.48322V6.47636Z" fill="#12AAFF"/>
</g>
</g>
</g>
<g id="Group_7">
<path id="Vector_4" d="M9.50006 1.49157C9.5412 1.49157 9.58234 1.50528 9.61663 1.52585L15.9115 5.16014C15.9869 5.20128 16.0281 5.28357 16.0281 5.36585V12.6344C16.0281 12.7167 15.9801 12.799 15.9115 12.8401L9.61663 16.4744C9.58234 16.495 9.5412 16.5087 9.50006 16.5087C9.45892 16.5087 9.41777 16.495 9.38349 16.4744L3.08863 12.8401C3.0132 12.799 2.97206 12.7167 2.97206 12.6344V5.359C2.97206 5.27671 3.02006 5.19442 3.08863 5.15328L9.38349 1.519C9.41777 1.49843 9.45892 1.48471 9.50006 1.48471V1.49157ZM9.50006 0.428711C9.27377 0.428711 9.05434 0.483568 8.84863 0.600139L2.55377 4.23442C2.1492 4.46757 1.90234 4.89271 1.90234 5.359V12.6276C1.90234 13.0939 2.1492 13.519 2.55377 13.7521L8.84863 17.3864C9.04749 17.503 9.27377 17.5579 9.50006 17.5579C9.72634 17.5579 9.94577 17.503 10.1515 17.3864L16.4463 13.7521C16.8509 13.519 17.0978 13.0939 17.0978 12.6276V5.359C17.0978 4.89271 16.8509 4.46757 16.4463 4.23442L10.1446 0.600139C9.94577 0.483568 9.71949 0.428711 9.4932 0.428711H9.50006Z" fill="#9DCCED"/>
</g>
<path id="Vector_5" d="M5.33203 15.3702L5.91489 13.7793L7.0806 14.7462L5.99032 15.7473L5.33203 15.3702Z" fill="#213147"/>
<g id="Group_8">
<path id="Vector_6" d="M8.96654 4.84475H7.36883C7.25226 4.84475 7.14254 4.92018 7.1014 5.02989L3.67969 14.4105L5.33226 15.3636L9.10369 5.02989C9.13797 4.93389 9.0694 4.83789 8.9734 4.83789L8.96654 4.84475Z" fill="white"/>
<path id="Vector_7" d="M11.7659 4.84475H10.1682C10.0516 4.84475 9.9419 4.92018 9.90076 5.02989L5.99219 15.7407L7.64476 16.6939L11.8962 5.02989C11.9305 4.93389 11.8619 4.83789 11.7659 4.83789V4.84475Z" fill="white"/>
</g>
</g>
</g>
</g>
</g>
</g>
<defs>
<clipPath id="clip0_922_27608">
<rect width="17.1429" height="17.1429" fill="white" transform="translate(0.929688 0.428711)"/>
</clipPath>
</defs>
</svg>
