<svg width="22" height="22" viewBox="0 0 22 22" fill="none" xmlns="http://www.w3.org/2000/svg">
<g clip-path="url(#clip0_5185_4488)">
<path d="M2.57422 6.9682V15.0322C2.57422 15.5506 2.84576 16.0196 3.29833 16.2829L10.2844 20.3149C10.7287 20.57 11.28 20.57 11.7244 20.3149L18.7105 16.2829C19.1548 16.0279 19.4346 15.5506 19.4346 15.0322V6.9682C19.4346 6.4498 19.163 5.98077 18.7105 5.71746L11.7244 1.68545C11.28 1.43037 10.7287 1.43037 10.2844 1.68545L3.29833 5.71746C2.85399 5.97254 2.58245 6.4498 2.58245 6.9682H2.57422Z" fill="#213147"/>
<path d="M12.522 12.5642L11.5263 15.2961C11.5016 15.3702 11.5016 15.4524 11.5263 15.5347L13.2379 20.2332L15.221 19.0895L12.8429 12.5642C12.7853 12.4161 12.5796 12.4161 12.522 12.5642Z" fill="#12AAFF"/>
<path d="M14.5226 7.97241C14.465 7.8243 14.2593 7.8243 14.2017 7.97241L13.206 10.7043C13.1813 10.7784 13.1813 10.8606 13.206 10.9429L16.012 18.6366L17.995 17.4929L14.5226 7.98064V7.97241Z" fill="#12AAFF"/>
<path d="M11.0001 1.99027C11.0494 1.99027 11.0988 2.00673 11.14 2.03142L18.6938 6.39256C18.7843 6.44193 18.8337 6.54067 18.8337 6.63941V15.3617C18.8337 15.4604 18.7761 15.5592 18.6938 15.6086L11.14 19.9697C11.0988 19.9944 11.0494 20.0108 11.0001 20.0108C10.9507 20.0108 10.9013 19.9944 10.8602 19.9697L3.30636 15.6086C3.21584 15.5592 3.16647 15.4604 3.16647 15.3617V6.63119C3.16647 6.53244 3.22407 6.4337 3.30636 6.38433L10.8602 2.02319C10.9013 1.9985 10.9507 1.98204 11.0001 1.98204V1.99027ZM11.0001 0.714844C10.7285 0.714844 10.4652 0.780672 10.2184 0.920558L2.66453 5.2817C2.17904 5.56147 1.88281 6.07164 1.88281 6.63119V15.3535C1.88281 15.913 2.17904 16.4232 2.66453 16.703L10.2184 21.0641C10.457 21.204 10.7285 21.2698 11.0001 21.2698C11.2716 21.2698 11.5349 21.204 11.7818 21.0641L19.3356 16.703C19.8211 16.4232 20.1173 15.913 20.1173 15.3535V6.63119C20.1173 6.07164 19.8211 5.56147 19.3356 5.2817L11.7736 0.920558C11.5349 0.780672 11.2634 0.714844 10.9918 0.714844H11.0001Z" fill="#9DCCED"/>
<path d="M5.99609 18.6454L6.69552 16.7363L8.09438 17.8966L6.78604 19.0979L5.99609 18.6454Z" fill="#213147"/>
<path d="M10.3559 6.01409H8.43869C8.2988 6.01409 8.16715 6.1046 8.11778 6.23626L4.01172 17.4929L5.9948 18.6367L10.5205 6.23626C10.5617 6.12106 10.4794 6.00586 10.3642 6.00586L10.3559 6.01409Z" fill="white"/>
<path d="M13.7136 6.01409H11.7964C11.6565 6.01409 11.5248 6.1046 11.4754 6.23626L6.78516 19.0893L8.76824 20.2331L13.87 6.23626C13.9111 6.12106 13.8288 6.00586 13.7136 6.00586V6.01409Z" fill="white"/>
</g>
<defs>
<clipPath id="clip0_5185_4488">
<rect width="20.5714" height="20.5714" fill="white" transform="translate(0.714844 0.714844)"/>
</clipPath>
</defs>
</svg>
