<svg width="20" height="20" viewBox="0 0 20 20" fill="none" xmlns="http://www.w3.org/2000/svg">
<g id="socialIcons" clip-path="url(#clip0_922_14279)">
<path id="Vector" d="M15.0604 0.833008H4.93697C2.66988 0.833008 0.832031 2.67085 0.832031 4.93795V15.0614C0.832031 17.3285 2.66988 19.1663 4.93697 19.1663H15.0604C17.3275 19.1663 19.1654 17.3285 19.1654 15.0614V4.93795C19.1654 2.67085 17.3275 0.833008 15.0604 0.833008Z" stroke="white" stroke-opacity="0.5" stroke-width="1.5"/>
<path id="Vector_2" d="M5.62109 3.84668H14.2207V16.1544H12.9584V8.84995H12.946C12.8065 7.29186 11.5054 6.07083 9.92088 6.07083C8.33646 6.07083 7.03532 7.29186 6.8958 8.84995H6.88343V16.1544H5.62109V3.84668Z" fill="white" fill-opacity="0.5"/>
<path id="Vector_3" d="M3.33203 5.59277L3.84485 7.33967H4.27877V14.4066C4.06091 14.4066 3.8843 14.5844 3.8843 14.8037V15.2801H3.80541C3.58754 15.2801 3.41092 15.4579 3.41092 15.6771V16.1536H7.82907V15.6771C7.82907 15.4579 7.65246 15.2801 7.4346 15.2801H7.3557V14.8037C7.3557 14.5844 7.17909 14.4066 6.96122 14.4066H6.48785V5.59277H3.33203Z" fill="white" fill-opacity="0.5"/>
<path id="Vector_4" d="M13.0358 14.4066C12.8179 14.4066 12.6413 14.5844 12.6413 14.8037V15.2801H12.5624C12.3446 15.2801 12.168 15.4579 12.168 15.6771V16.1536H16.5861V15.6771C16.5861 15.4579 16.4095 15.2801 16.1916 15.2801H16.1127V14.8037C16.1127 14.5844 15.9361 14.4066 15.7182 14.4066V7.33967H16.1521L16.665 5.59277H13.5091V14.4066H13.0358Z" fill="white" fill-opacity="0.5"/>
</g>
<defs>
<clipPath id="clip0_922_14279">
<rect width="20" height="20" fill="white"/>
</clipPath>
</defs>
</svg>
