<svg width="20" height="20" viewBox="0 0 20 20" fill="none" xmlns="http://www.w3.org/2000/svg">
<g id="socialIcons" clip-path="url(#clip0_922_14284)">
<path id="Vector" d="M1.00766 4.62437C0.833798 5.9175 0.832031 7.61911 0.832031 9.99967C0.832031 12.3803 0.833798 14.0818 1.00766 15.375C1.17829 16.6442 1.50082 17.3944 2.05241 17.946C2.60401 18.4976 3.35421 18.8201 4.62338 18.9908C5.91651 19.1646 7.61811 19.1663 9.9987 19.1663C12.3793 19.1663 14.0809 19.1646 15.374 18.9908C16.6432 18.8201 17.3934 18.4976 17.945 17.946M1.00766 4.62437C1.17829 3.3552 1.50083 2.60499 2.05241 2.0534C2.60401 1.5018 3.35422 1.17927 4.62338 1.00863C5.91651 0.834774 7.61811 0.833008 9.9987 0.833008C12.3793 0.833008 14.0809 0.834774 15.374 1.00863C16.6432 1.17927 17.3934 1.50179 17.945 2.05338M17.945 17.946C18.4966 17.3943 18.8191 16.6442 18.9898 15.375C19.1636 14.0818 19.1654 12.3803 19.1654 9.99967C19.1654 7.61911 19.1636 5.9175 18.9898 4.62436C18.8191 3.35519 18.4966 2.60498 17.945 2.05338" stroke="white" stroke-opacity="0.5" stroke-width="1.5" stroke-linecap="round" stroke-linejoin="round"/>
<path id="Vector_2" d="M7.50389 16.0779C7.50389 16.0779 6 16.0779 4.5 14.0787M12.0588 19.167V14.8429C12.0588 14.4795 11.9506 14.1636 11.7762 13.8782C11.6566 13.6825 11.7385 13.4047 11.9547 13.3433C13.7447 12.8351 15 12.018 15 9.30758C15 8.60291 14.7764 7.9404 14.3834 7.3638C14.1879 7.07684 14.1928 7.1034 14.2746 6.76419C14.4183 6.16767 14.4298 5.53925 14.2692 4.95305C14.2164 4.76035 14.1032 4.64796 13.8983 4.66966C13.6326 4.69781 13.1725 4.82363 12.49 5.26392C12.2219 5.43692 12.0878 5.52342 11.9697 5.54277C11.8516 5.56212 11.6938 5.52159 11.378 5.44053C10.9463 5.32968 10.5014 5.27018 10 5.27018C9.49859 5.27018 9.05367 5.32968 8.62201 5.44053C8.3062 5.52159 8.1484 5.56212 8.0303 5.54277C7.9122 5.52342 7.77813 5.43692 7.50999 5.26392C6.82753 4.82363 6.3674 4.69781 6.10166 4.66966C5.8968 4.64796 5.78361 4.76035 5.73081 4.95305C5.57017 5.53925 5.58167 6.16769 5.72543 6.7642C5.80718 7.10342 5.81213 7.07684 5.61654 7.3638C5.22356 7.9404 5 8.60291 5 9.30758C5 12.018 6.25526 12.8351 8.0453 13.3433C8.2615 13.4047 8.34342 13.6825 8.2238 13.8782C8.0494 14.1636 7.94118 14.4795 7.94118 14.8429V19.167" stroke="white" stroke-opacity="0.5" stroke-width="1.5"/>
</g>
<defs>
<clipPath id="clip0_922_14284">
<rect width="20" height="20" fill="white"/>
</clipPath>
</defs>
</svg>
