<svg width="24" height="24" viewBox="0 0 24 24" fill="none" xmlns="http://www.w3.org/2000/svg">
<g clip-path="url(#clip0_5267_14333)">
<path d="M12 24C18.6274 24 24 18.6274 24 12C24 5.37258 18.6274 0 12 0C5.37258 0 0 5.37258 0 12C0 18.6274 5.37258 24 12 24Z" fill="#F0F0F0"/>
<path d="M12.0007 0C7.24316 0 3.13241 2.76867 1.19141 6.78262H22.8099C20.869 2.76867 16.7582 0 12.0007 0Z" fill="black"/>
<path d="M12.0007 23.9994C7.24316 23.9994 3.13241 21.2308 1.19141 17.2168H22.8099C20.869 21.2308 16.7582 23.9994 12.0007 23.9994Z" fill="#496E2D"/>
<path d="M23.4333 8.34766H0.566672C0.199078 9.49933 0 10.7263 0 11.9998C0 13.2734 0.199078 14.5003 0.566672 15.652H23.4333C23.8009 14.5003 24 13.2734 24 11.9998C24 10.7263 23.8009 9.49933 23.4333 8.34766Z" fill="#A2001D"/>
<path d="M15.735 5.54459L14.3139 4.88867L11.9984 10.1317L9.68283 4.88867L8.26172 5.54459L11.1365 11.9992L8.26172 18.4539L9.68283 19.1098L11.9984 13.8668L14.3139 19.1098L15.735 18.4539L12.8602 11.9992L15.735 5.54459Z" fill="#F0F0F0"/>
<path d="M12.9617 6.16297C12.4115 5.56217 11.9965 5.2168 11.9965 5.2168C11.9965 5.2168 11.5814 5.56212 11.0312 6.16297V17.8358C11.5814 18.4367 11.9965 18.782 11.9965 18.782C11.9965 18.782 12.4115 18.4367 12.9617 17.8358V6.16297Z" fill="#F0F0F0"/>
<path d="M9.39062 8.40287V15.5987C9.97197 16.6288 10.6835 17.4731 11.2167 18.0329V5.96875C10.6835 6.52848 9.97192 7.37284 9.39062 8.40287Z" fill="#A2001D"/>
<path d="M14.6074 8.40287C14.026 7.3728 13.3145 6.52848 12.7812 5.96875V18.0329C13.3145 17.4731 14.026 16.6288 14.6074 15.5987V8.40287Z" fill="#A2001D"/>
<path d="M14.6094 8.40039V15.5963C15.1979 14.5533 15.6529 13.3201 15.6529 11.9984C15.6529 10.6766 15.1979 9.44336 14.6094 8.40039Z" fill="black"/>
<path d="M9.39114 8.40039V15.5963C8.80263 14.5533 8.34766 13.3201 8.34766 11.9984C8.34766 10.6766 8.80263 9.44336 9.39114 8.40039Z" fill="black"/>
</g>
<defs>
<clipPath id="clip0_5267_14333">
<rect width="24" height="24" fill="white"/>
</clipPath>
</defs>
</svg>
