<svg width="16" height="16" viewBox="0 0 16 16" fill="none" xmlns="http://www.w3.org/2000/svg">
<g clip-path="url(#clip0_5267_14581)">
<path d="M16.0003 8.00028C16.0003 12.4186 12.4186 16.0003 8.00028 16.0003C3.582 16.0003 0.00027895 12.4186 0.00027895 8.00028C0.00027895 3.582 3.582 0.00027895 8.00028 0.00027895C12.4186 0.00027895 16.0003 3.582 16.0003 8.00028Z" fill="#C4C4C4"/>
<path d="M-1.14258 -1.14258H6.85742V17.1431H-1.14258V-1.14258Z" fill="#257225"/>
<path d="M9.14314 -1.14258H17.1431V17.1431H9.14314V-1.14258Z" fill="#257225"/>
<path d="M5.71456 -1.14258H10.286V17.1431H5.71456V-1.14258Z" fill="white"/>
</g>
<defs>
<clipPath id="clip0_5267_14581">
<path d="M0 8C0 3.58172 3.58172 0 8 0C12.4183 0 16 3.58172 16 8C16 12.4183 12.4183 16 8 16C3.58172 16 0 12.4183 0 8Z" fill="white"/>
</clipPath>
</defs>
</svg>
