<svg width="21" height="20" viewBox="0 0 21 20" fill="none" xmlns="http://www.w3.org/2000/svg">
<path d="M10.6641 20C16.187 20 20.6641 15.5229 20.6641 10C20.6641 4.47708 16.187 0 10.6641 0C5.14115 0 0.664062 4.47708 0.664062 10C0.664062 15.5229 5.14115 20 10.6641 20Z" fill="#F9FAFB"/>
<g clip-path="url(#clip0_922_27631)">
<path d="M11.2562 10.8537V11.6418C11.2562 11.9541 11.429 12.232 11.674 12.3722C11.6742 12.3723 11.6743 12.3724 11.6745 12.3725L12.9808 13.132L12.9807 13.1321L12.9867 13.1351C13.2576 13.2706 13.5691 13.2737 13.8165 13.1324L13.8165 13.1324L13.8182 13.1314L15.0947 12.3715L15.0948 12.3715L15.0967 12.3703C15.3712 12.1987 15.5114 11.9213 15.5114 11.6418V10.1221C15.5114 9.80977 15.3385 9.53183 15.0934 9.39161C15.0933 9.39154 15.0932 9.39148 15.0931 9.39142L13.7868 8.63194L13.7869 8.63176L13.7809 8.62876C13.51 8.49332 13.1985 8.49016 12.9511 8.63154L12.9504 8.63196L11.2788 9.60448L11.2786 9.6046L10.1238 10.2732L10.1236 10.2733L8.45492 11.2442C8.24038 11.3504 8.00625 11.3468 7.82899 11.2457C7.8289 11.2456 7.82881 11.2456 7.82873 11.2455L5.36891 9.8182C5.15809 9.68579 5.0556 9.47735 5.0556 9.27102V6.4139C5.0556 6.20513 5.15941 6.00221 5.36153 5.90115L5.36164 5.90136L5.3677 5.89781L7.85696 4.44068C8.07136 4.33461 8.3053 4.33811 8.48251 4.43911L10.9122 5.86656C11.1232 5.99897 11.2258 6.20749 11.2258 6.4139V7.38599L10.2835 7.9315V7.11298C10.2835 6.80104 10.111 6.52338 9.86637 6.383L8.56047 5.59339L8.56064 5.59309L8.553 5.58927C8.28212 5.45383 7.97059 5.45067 7.72316 5.59205L7.72316 5.59205L7.72247 5.59245L6.41549 6.35232L6.41547 6.35228L6.41258 6.35408C6.13805 6.52566 5.99784 6.80306 5.99784 7.08259V8.60233C5.99784 8.91428 6.17035 9.19194 6.41501 9.33232L7.7209 10.1219L7.72072 10.1222L7.72837 10.126C7.99925 10.2615 8.31078 10.2646 8.5582 10.1233L8.55821 10.1233L8.56016 10.1221L10.2303 9.12005L11.3836 8.48268L11.3836 8.48271L11.3862 8.48122L13.085 7.48011C13.2995 7.37406 13.5335 7.37762 13.7107 7.47873C13.7108 7.47879 13.7109 7.47884 13.711 7.4789L16.1708 8.9062C16.3816 9.03861 16.4841 9.24706 16.4841 9.45339V12.3409C16.4841 12.5756 16.3532 12.7838 16.1729 12.8868L16.1723 12.8872L13.7133 14.314C13.4988 14.4202 13.2647 14.4167 13.0874 14.3156C13.0873 14.3155 13.0872 14.3155 13.087 14.3154L10.6272 12.8881C10.4164 12.7557 10.3139 12.5472 10.3139 12.3409V11.3992L11.2562 10.8537Z" fill="#8247E5" stroke="white" stroke-width="0.212764"/>
</g>
<defs>
<clipPath id="clip0_922_27631">
<rect width="11.6716" height="10.1823" fill="white" transform="translate(4.94922 4.28613)"/>
</clipPath>
</defs>
</svg>
