<svg width="23" height="99" viewBox="0 0 23 99" fill="none" xmlns="http://www.w3.org/2000/svg">
<path d="M8 1C8 0.447715 8.44772 0 9 0H14C14.5523 0 15 0.447715 15 1C15 1.55228 14.5523 2 14 2H9C8.44772 2 8 1.55228 8 1Z" fill="white" fill-opacity="0.1"/>
<rect x="10.25" y="6" width="2.5" height="2.5" rx="1.25" fill="white" fill-opacity="0.1"/>
<rect x="10.25" y="14.5" width="2.5" height="2.5" rx="1.25" fill="white" fill-opacity="0.1"/>
<rect x="10.25" y="23" width="2.5" height="2.5" rx="1.25" fill="white" fill-opacity="0.1"/>
<rect x="10.25" y="31.5" width="2.5" height="2.5" rx="1.25" fill="white" fill-opacity="0.1"/>
<rect x="10.25" y="40" width="2.5" height="2.5" rx="1.25" fill="white" fill-opacity="0.1"/>
<rect x="10.25" y="48.5" width="2.5" height="2.5" rx="1.25" fill="white" fill-opacity="0.1"/>
<rect x="10.25" y="57" width="2.5" height="2.5" rx="1.25" fill="white" fill-opacity="0.1"/>
<rect x="10.25" y="65.5" width="2.5" height="2.5" rx="1.25" fill="white" fill-opacity="0.1"/>
<rect x="10.25" y="74" width="2.5" height="2.5" rx="1.25" fill="white" fill-opacity="0.1"/>
<g filter="url(#filter0_ddi_569_72842)">
<path d="M7 85C7 82.5147 9.01472 80.5 11.5 80.5C13.9853 80.5 16 82.5147 16 85C16 87.4853 13.9853 89.5 11.5 89.5C9.01472 89.5 7 87.4853 7 85Z" fill="url(#paint0_linear_569_72842)" shape-rendering="crispEdges"/>
<path d="M11.5 79C8.18629 79 5.5 81.6863 5.5 85C5.5 88.3137 8.18629 91 11.5 91C14.8137 91 17.5 88.3137 17.5 85C17.5 81.6863 14.8137 79 11.5 79Z" stroke="#121217" stroke-width="3" shape-rendering="crispEdges"/>
</g>
<defs>
<filter id="filter0_ddi_569_72842" x="0" y="75.3" width="23" height="23.2" filterUnits="userSpaceOnUse" color-interpolation-filters="sRGB">
<feFlood flood-opacity="0" result="BackgroundImageFix"/>
<feColorMatrix in="SourceAlpha" type="matrix" values="0 0 0 0 0 0 0 0 0 0 0 0 0 0 0 0 0 0 127 0" result="hardAlpha"/>
<feOffset dy="2"/>
<feGaussianBlur stdDeviation="2"/>
<feColorMatrix type="matrix" values="0 0 0 0 0.0705882 0 0 0 0 0.0705882 0 0 0 0 0.0901961 0 0 0 0.1 0"/>
<feBlend mode="normal" in2="BackgroundImageFix" result="effect1_dropShadow_569_72842"/>
<feColorMatrix in="SourceAlpha" type="matrix" values="0 0 0 0 0 0 0 0 0 0 0 0 0 0 0 0 0 0 127 0" result="hardAlpha"/>
<feMorphology radius="0.2" operator="dilate" in="SourceAlpha" result="effect2_dropShadow_569_72842"/>
<feOffset dy="-1"/>
<feGaussianBlur stdDeviation="0.5"/>
<feComposite in2="hardAlpha" operator="out"/>
<feColorMatrix type="matrix" values="0 0 0 0 0 0 0 0 0 0 0 0 0 0 0 0 0 0 0.02 0"/>
<feBlend mode="normal" in2="effect1_dropShadow_569_72842" result="effect2_dropShadow_569_72842"/>
<feBlend mode="normal" in="SourceGraphic" in2="effect2_dropShadow_569_72842" result="shape"/>
<feColorMatrix in="SourceAlpha" type="matrix" values="0 0 0 0 0 0 0 0 0 0 0 0 0 0 0 0 0 0 127 0" result="hardAlpha"/>
<feOffset/>
<feGaussianBlur stdDeviation="3"/>
<feComposite in2="hardAlpha" operator="arithmetic" k2="-1" k3="1"/>
<feColorMatrix type="matrix" values="0 0 0 0 0.27451 0 0 0 0 0.27451 0 0 0 0 0.27451 0 0 0 0.25 0"/>
<feBlend mode="normal" in2="shape" result="effect3_innerShadow_569_72842"/>
</filter>
<linearGradient id="paint0_linear_569_72842" x1="9" y1="81.5" x2="13.5" y2="96" gradientUnits="userSpaceOnUse">
<stop offset="0.156015" stop-color="#39C65D"/>
<stop offset="0.488899" stop-color="#39C65D" stop-opacity="0.76"/>
<stop offset="0.72805" stop-color="#39C65D" stop-opacity="0.86"/>
<stop offset="0.970989" stop-color="white"/>
</linearGradient>
</defs>
</svg>
