<svg width="23" height="362" viewBox="0 0 23 362" fill="none" xmlns="http://www.w3.org/2000/svg">
<path d="M8 1C8 0.447715 8.44772 0 9 0H14C14.5523 0 15 0.447715 15 1C15 1.55228 14.5523 2 14 2H9C8.44772 2 8 1.55228 8 1Z" fill="#B0E8BE"/>
<rect x="10.25" y="6" width="2.5" height="2.5" rx="1.25" fill="#B0E8BE"/>
<rect x="10.25" y="14.5" width="2.5" height="2.5" rx="1.25" fill="#B0E8BE"/>
<rect x="10.25" y="23" width="2.5" height="2.5" rx="1.25" fill="#B0E8BE"/>
<rect x="10.25" y="31.5" width="2.5" height="2.5" rx="1.25" fill="#B0E8BE"/>
<rect x="10.25" y="40" width="2.5" height="2.5" rx="1.25" fill="#B0E8BE"/>
<rect x="10.25" y="48.5" width="2.5" height="2.5" rx="1.25" fill="#B0E8BE"/>
<rect x="10.25" y="57" width="2.5" height="2.5" rx="1.25" fill="#B0E8BE"/>
<rect x="10.25" y="65.5" width="2.5" height="2.5" rx="1.25" fill="#B0E8BE"/>
<rect x="10.25" y="74" width="2.5" height="2.5" rx="1.25" fill="#B0E8BE"/>
<rect x="10.25" y="82.5" width="2.5" height="2.5" rx="1.25" fill="#B0E8BE"/>
<rect x="10.25" y="91" width="2.5" height="2.5" rx="1.25" fill="#B0E8BE"/>
<rect x="10.25" y="99.5" width="2.5" height="2.5" rx="1.25" fill="#B0E8BE"/>
<rect x="10.25" y="108" width="2.5" height="2.5" rx="1.25" fill="#B0E8BE"/>
<rect x="10.25" y="116.5" width="2.5" height="2.5" rx="1.25" fill="#B0E8BE"/>
<rect x="10.25" y="125" width="2.5" height="2.5" rx="1.25" fill="#B0E8BE"/>
<rect x="10.25" y="133.5" width="2.5" height="2.5" rx="1.25" fill="#B0E8BE"/>
<rect x="10.25" y="142" width="2.5" height="2.5" rx="1.25" fill="#B0E8BE"/>
<rect x="10.25" y="150.5" width="2.5" height="2.5" rx="1.25" fill="#B0E8BE"/>
<rect x="10.25" y="159" width="2.5" height="2.5" rx="1.25" fill="#B0E8BE"/>
<rect x="10.25" y="167.5" width="2.5" height="2.5" rx="1.25" fill="#B0E8BE"/>
<rect x="10.25" y="176" width="2.5" height="2.5" rx="1.25" fill="#B0E8BE"/>
<rect x="10.25" y="184.5" width="2.5" height="2.5" rx="1.25" fill="#B0E8BE"/>
<rect x="10.25" y="193" width="2.5" height="2.5" rx="1.25" fill="#B0E8BE"/>
<rect x="10.25" y="201.5" width="2.5" height="2.5" rx="1.25" fill="#B0E8BE"/>
<rect x="10.25" y="210" width="2.5" height="2.5" rx="1.25" fill="#B0E8BE"/>
<rect x="10.25" y="218.5" width="2.5" height="2.5" rx="1.25" fill="#B0E8BE"/>
<rect x="10.25" y="227" width="2.5" height="2.5" rx="1.25" fill="#B0E8BE"/>
<rect x="10.25" y="235.5" width="2.5" height="2.5" rx="1.25" fill="#B0E8BE"/>
<rect x="10.25" y="244" width="2.5" height="2.5" rx="1.25" fill="#B0E8BE"/>
<rect x="10.25" y="252.5" width="2.5" height="2.5" rx="1.25" fill="#B0E8BE"/>
<rect x="10.25" y="261" width="2.5" height="2.5" rx="1.25" fill="#B0E8BE"/>
<rect x="10.25" y="269.5" width="2.5" height="2.5" rx="1.25" fill="#B0E8BE"/>
<rect x="10.25" y="278" width="2.5" height="2.5" rx="1.25" fill="#B0E8BE"/>
<rect x="10.25" y="286.5" width="2.5" height="2.5" rx="1.25" fill="#B0E8BE"/>
<rect x="10.25" y="295" width="2.5" height="2.5" rx="1.25" fill="#B0E8BE"/>
<rect x="10.25" y="303.5" width="2.5" height="2.5" rx="1.25" fill="#B0E8BE"/>
<rect x="10.25" y="312" width="2.5" height="2.5" rx="1.25" fill="#B0E8BE"/>
<rect x="10.25" y="320.5" width="2.5" height="2.5" rx="1.25" fill="#B0E8BE"/>
<rect x="10.25" y="329" width="2.5" height="2.5" rx="1.25" fill="#B0E8BE"/>
<rect x="10.25" y="337.5" width="2.5" height="2.5" rx="1.25" fill="#B0E8BE"/>
<g filter="url(#filter0_ddi_569_72725)">
<path d="M7 348.5C7 346.015 9.01472 344 11.5 344C13.9853 344 16 346.015 16 348.5C16 350.985 13.9853 353 11.5 353C9.01472 353 7 350.985 7 348.5Z" fill="url(#paint0_linear_569_72725)" shape-rendering="crispEdges"/>
<path d="M11.5 342.5C8.18629 342.5 5.5 345.186 5.5 348.5C5.5 351.814 8.18629 354.5 11.5 354.5C14.8137 354.5 17.5 351.814 17.5 348.5C17.5 345.186 14.8137 342.5 11.5 342.5Z" stroke="white" stroke-width="3" shape-rendering="crispEdges"/>
</g>
<defs>
<filter id="filter0_ddi_569_72725" x="0" y="338.8" width="23" height="23.2" filterUnits="userSpaceOnUse" color-interpolation-filters="sRGB">
<feFlood flood-opacity="0" result="BackgroundImageFix"/>
<feColorMatrix in="SourceAlpha" type="matrix" values="0 0 0 0 0 0 0 0 0 0 0 0 0 0 0 0 0 0 127 0" result="hardAlpha"/>
<feOffset dy="2"/>
<feGaussianBlur stdDeviation="2"/>
<feColorMatrix type="matrix" values="0 0 0 0 0.0705882 0 0 0 0 0.0705882 0 0 0 0 0.0901961 0 0 0 0.1 0"/>
<feBlend mode="normal" in2="BackgroundImageFix" result="effect1_dropShadow_569_72725"/>
<feColorMatrix in="SourceAlpha" type="matrix" values="0 0 0 0 0 0 0 0 0 0 0 0 0 0 0 0 0 0 127 0" result="hardAlpha"/>
<feMorphology radius="0.2" operator="dilate" in="SourceAlpha" result="effect2_dropShadow_569_72725"/>
<feOffset dy="-1"/>
<feGaussianBlur stdDeviation="0.5"/>
<feComposite in2="hardAlpha" operator="out"/>
<feColorMatrix type="matrix" values="0 0 0 0 0 0 0 0 0 0 0 0 0 0 0 0 0 0 0.02 0"/>
<feBlend mode="normal" in2="effect1_dropShadow_569_72725" result="effect2_dropShadow_569_72725"/>
<feBlend mode="normal" in="SourceGraphic" in2="effect2_dropShadow_569_72725" result="shape"/>
<feColorMatrix in="SourceAlpha" type="matrix" values="0 0 0 0 0 0 0 0 0 0 0 0 0 0 0 0 0 0 127 0" result="hardAlpha"/>
<feOffset/>
<feGaussianBlur stdDeviation="3"/>
<feComposite in2="hardAlpha" operator="arithmetic" k2="-1" k3="1"/>
<feColorMatrix type="matrix" values="0 0 0 0 0.27451 0 0 0 0 0.27451 0 0 0 0 0.27451 0 0 0 0.25 0"/>
<feBlend mode="normal" in2="shape" result="effect3_innerShadow_569_72725"/>
</filter>
<linearGradient id="paint0_linear_569_72725" x1="9" y1="345" x2="13.5" y2="359.5" gradientUnits="userSpaceOnUse">
<stop offset="0.156015" stop-color="#39C65D"/>
<stop offset="0.488899" stop-color="#39C65D" stop-opacity="0.76"/>
<stop offset="0.72805" stop-color="#39C65D" stop-opacity="0.86"/>
<stop offset="0.970989" stop-color="white"/>
</linearGradient>
</defs>
</svg>
