<svg width="24" height="24" viewBox="0 0 24 24" fill="none" xmlns="http://www.w3.org/2000/svg">
<path d="M12 24C18.6274 24 24 18.6274 24 12C24 5.37258 18.6274 0 12 0C5.37258 0 0 5.37258 0 12C0 18.6274 5.37258 24 12 24Z" fill="#FF060A"/>
<g clip-path="url(#clip0_5179_4387)">
<path d="M17.5106 10.7308C16.9079 10.1743 16.0742 9.32456 15.3952 8.72188L15.355 8.69375C15.2882 8.64007 15.2128 8.59797 15.132 8.5692C13.4948 8.26384 5.87489 6.83951 5.72623 6.85759C5.68457 6.86343 5.64476 6.87853 5.60971 6.90179L5.57154 6.93192C5.52454 6.97966 5.48884 7.03732 5.46708 7.10067L5.45703 7.12679V7.26942V7.29152C6.31484 9.68014 9.7019 17.5049 10.3689 19.3411C10.409 19.4656 10.4854 19.7027 10.628 19.7147H10.6602C10.7365 19.7147 11.0619 19.2848 11.0619 19.2848C11.0619 19.2848 16.8798 12.2295 17.4684 11.4781C17.5446 11.3856 17.6119 11.286 17.6693 11.1808C17.684 11.0985 17.6771 11.0138 17.6492 10.9349C17.6214 10.856 17.5737 10.7857 17.5106 10.7308ZM12.5546 11.5525L15.0376 9.49331L16.4941 10.8353L12.5546 11.5525ZM11.5903 11.4179L7.31529 7.91429L14.232 9.18996L11.5903 11.4179ZM11.976 12.3359L16.3515 11.6308L11.3492 17.6576L11.976 12.3359ZM6.73471 8.26384L11.2327 12.0808L10.5818 17.6616L6.73471 8.26384Z" fill="white"/>
</g>
<defs>
<clipPath id="clip0_5179_4387">
<rect width="12.8571" height="12.8571" fill="white" transform="translate(5.14453 6.85742)"/>
</clipPath>
</defs>
</svg>
