<svg width="28" height="28" viewBox="0 0 28 28" fill="none" xmlns="http://www.w3.org/2000/svg">
<path d="M14.2505 27.44C21.6733 27.44 27.6905 21.4227 27.6905 14C27.6905 6.57729 21.6733 0.559998 14.2505 0.559998C6.82784 0.559998 0.810547 6.57729 0.810547 14C0.810547 21.4227 6.82784 27.44 14.2505 27.44Z" fill="#2775C9"/>
<path d="M14.0409 23.66C8.5893 23.66 4.1709 19.2416 4.1709 13.79C4.1709 8.3384 8.5893 3.92 14.0409 3.92C19.4925 3.92 23.9109 8.3384 23.9109 13.79C23.9109 16.4077 22.871 18.9182 21.02 20.7691C19.1691 22.6201 16.6586 23.66 14.0409 23.66V23.66ZM13.4529 10.1276C12.9129 10.1544 12.4024 10.3821 12.0216 10.7659C11.6408 11.1498 11.4173 11.6622 11.3949 12.2024C11.3949 13.2188 12.0165 13.8824 13.3353 14.1596L14.2593 14.378C15.1581 14.588 15.5277 14.8904 15.5277 15.4028C15.5277 15.9152 14.8809 16.4192 14.0409 16.4192C13.7425 16.4466 13.4425 16.3894 13.1751 16.2542C12.9077 16.119 12.6838 15.9113 12.5289 15.6548C12.483 15.5575 12.4106 15.4751 12.3199 15.4171C12.2293 15.3592 12.1241 15.328 12.0165 15.3272H11.5209C11.4828 15.3343 11.4464 15.3488 11.414 15.3699C11.3815 15.3911 11.3535 15.4185 11.3317 15.4505C11.3098 15.4825 11.2945 15.5185 11.2866 15.5564C11.2787 15.5944 11.2784 15.6335 11.2857 15.6716C11.4064 16.1643 11.6871 16.6031 12.0838 16.9192C12.4805 17.2354 12.9709 17.4111 13.4781 17.4188V18.1244C13.4781 18.2815 13.5405 18.4321 13.6516 18.5431C13.7626 18.6542 13.9132 18.7166 14.0703 18.7166C14.2274 18.7166 14.378 18.6542 14.489 18.5431C14.6001 18.4321 14.6625 18.2815 14.6625 18.1244V17.4104C15.236 17.4039 15.7844 17.1737 16.1907 16.7689C16.5971 16.3642 16.8294 15.8167 16.8381 15.2432C16.8381 14.1764 16.2249 13.5632 14.7717 13.2524L13.9317 13.0676C13.0917 12.8576 12.6969 12.5804 12.6969 12.11C12.6969 11.6396 13.2009 11.1188 14.0409 11.1188C14.3054 11.0912 14.5723 11.1407 14.8093 11.2614C15.0463 11.3822 15.2433 11.569 15.3765 11.7992C15.4305 11.9142 15.516 12.0115 15.623 12.0799C15.73 12.1483 15.8543 12.1849 15.9813 12.1856H16.3761C16.4659 12.1636 16.5434 12.1073 16.5921 12.0288C16.6408 11.9503 16.6567 11.8558 16.6365 11.7656C16.5227 11.3107 16.2681 10.9033 15.9091 10.6016C15.5501 10.3 15.105 10.1194 14.6373 10.0856V9.506C14.6373 9.34894 14.5749 9.19831 14.4638 9.08725C14.3528 8.97619 14.2022 8.9138 14.0451 8.9138C13.888 8.9138 13.7374 8.97619 13.6264 9.08725C13.5153 9.19831 13.4529 9.34894 13.4529 9.506V10.1276V10.1276ZM6.6405 13.79C6.64146 15.3373 7.12852 16.8453 8.03287 18.1008C8.93723 19.3564 10.2132 20.2961 11.6805 20.7872H11.7981C11.8984 20.7872 11.9945 20.7474 12.0654 20.6765C12.1363 20.6056 12.1761 20.5095 12.1761 20.4092V20.2328C12.1764 20.0764 12.1302 19.9235 12.0435 19.7934C11.9568 19.6633 11.8333 19.5619 11.6889 19.502C10.5462 19.0408 9.56735 18.2485 8.87808 17.227C8.18881 16.2055 7.82054 15.0013 7.82054 13.769C7.82054 12.5367 8.18881 11.3325 8.87808 10.311C9.56735 9.28947 10.5462 8.49725 11.6889 8.036C11.8327 7.9776 11.9558 7.87769 12.0426 7.74903C12.1293 7.62037 12.1758 7.46878 12.1761 7.3136V7.1204C12.1766 7.06367 12.1635 7.00765 12.1378 6.95709C12.1121 6.90652 12.0745 6.8629 12.0284 6.82993C11.9822 6.79696 11.9288 6.7756 11.8726 6.76768C11.8164 6.75975 11.7592 6.76549 11.7057 6.7844C10.2323 7.27168 8.94991 8.21081 8.04064 9.4684C7.13137 10.726 6.64146 12.2381 6.6405 13.79V13.79ZM21.4413 13.79C21.4386 12.2441 20.9507 10.738 20.0465 9.48417C19.1422 8.2303 17.8673 7.29188 16.4013 6.8012H16.2753C16.1706 6.8012 16.0702 6.84279 15.9961 6.91683C15.9221 6.99087 15.8805 7.09129 15.8805 7.196V7.322C15.8839 7.48401 15.9341 7.64158 16.025 7.77572C16.1159 7.90986 16.2437 8.01484 16.3929 8.078C17.533 8.5406 18.5092 9.33287 19.1965 10.3534C19.8838 11.374 20.2509 12.5764 20.2509 13.8068C20.2509 15.0372 19.8838 16.2396 19.1965 17.2602C18.5092 18.2807 17.533 19.073 16.3929 19.5356C16.2465 19.5994 16.1214 19.7036 16.0321 19.836C15.9428 19.9685 15.8932 20.1236 15.8889 20.2832V20.426C15.8896 20.4883 15.9051 20.5495 15.934 20.6047C15.9629 20.6598 16.0044 20.7074 16.0552 20.7434C16.106 20.7795 16.1646 20.803 16.2262 20.812C16.2878 20.8211 16.3507 20.8155 16.4097 20.7956C17.8768 20.3026 19.1519 19.361 20.0548 18.1039C20.9577 16.8468 21.4427 15.3377 21.4413 13.79V13.79Z" fill="white"/>
</svg>
