<svg width="14" height="14" viewBox="0 0 14 14" fill="none" xmlns="http://www.w3.org/2000/svg">
<path d="M7 14C10.866 14 14 10.866 14 7C14 3.13401 10.866 0 7 0C3.13401 0 0 3.13401 0 7C0 10.866 3.13401 14 7 14Z" fill="#26A17B"/>
<path fill-rule="evenodd" clip-rule="evenodd" d="M7.84244 7.60515V7.60427C7.79431 7.60777 7.54625 7.62265 6.99281 7.62265C6.55094 7.62265 6.23987 7.60952 6.1305 7.60427V7.60559C4.4295 7.53077 3.15987 7.23459 3.15987 6.88021C3.15987 6.52627 4.4295 6.23009 6.1305 6.15396V7.31071C6.24162 7.31859 6.56012 7.3374 7.00025 7.3374C7.52831 7.3374 7.793 7.31552 7.84244 7.31115V6.15484C9.53994 6.23052 10.8065 6.52671 10.8065 6.88021C10.8065 7.23459 9.53994 7.5299 7.84244 7.60515ZM7.84244 6.03452V4.9994H10.2111V3.4209H3.76187V4.9994H6.1305V6.03409C4.2055 6.12246 2.75781 6.50396 2.75781 6.96071C2.75781 7.41746 4.2055 7.79852 6.1305 7.88734V11.2045H7.84244V7.88646C9.76437 7.79809 11.2086 7.41702 11.2086 6.96071C11.2086 6.5044 9.76437 6.12334 7.84244 6.03452Z" fill="white"/>
</svg>
