<svg width="20" height="20" viewBox="0 0 20 20" fill="none" xmlns="http://www.w3.org/2000/svg">
<g id="socialIcons" clip-path="url(#clip0_922_14287)">
<path id="Vector" d="M1.00766 4.62437C0.833798 5.9175 0.832031 7.61911 0.832031 9.99967C0.832031 12.3803 0.833798 14.0818 1.00766 15.375C1.17829 16.6442 1.50082 17.3944 2.05241 17.946C2.60401 18.4976 3.35421 18.8201 4.62338 18.9908C5.91651 19.1646 7.61811 19.1663 9.9987 19.1663C12.3793 19.1663 14.0809 19.1646 15.374 18.9908C16.6432 18.8201 17.3934 18.4976 17.945 17.946M1.00766 4.62437C1.17829 3.3552 1.50083 2.60499 2.05241 2.0534C2.60401 1.5018 3.35422 1.17927 4.62338 1.00863C5.91651 0.834774 7.61811 0.833008 9.9987 0.833008C12.3793 0.833008 14.0809 0.834774 15.374 1.00863C16.6432 1.17927 17.3934 1.50179 17.945 2.05338M17.945 17.946C18.4966 17.3943 18.8191 16.6442 18.9898 15.375C19.1636 14.0818 19.1654 12.3803 19.1654 9.99967C19.1654 7.61911 19.1636 5.9175 18.9898 4.62436C18.8191 3.35519 18.4966 2.60498 17.945 2.05338" stroke="white" stroke-opacity="0.5" stroke-width="1.5" stroke-linecap="round" stroke-linejoin="round"/>
<path id="Vector_2" d="M4.73438 15.2636L9.14872 10.8494M9.14872 10.8494L4.73438 4.7373H7.65836L10.8465 9.15156M9.14872 10.8494L12.3367 15.2636H15.2607L10.8465 9.15156M10.8465 9.15156L15.2607 4.7373" stroke="white" stroke-opacity="0.5" stroke-width="1.5" stroke-linecap="round" stroke-linejoin="round"/>
</g>
<defs>
<clipPath id="clip0_922_14287">
<rect width="20" height="20" fill="white"/>
</clipPath>
</defs>
</svg>
