<svg width="48" height="28" viewBox="0 0 48 28" fill="none" xmlns="http://www.w3.org/2000/svg">
<path d="M1.38423 21V19.5234L8.09588 9.89702H1.34588V7.90909H11.0362V9.38565L4.33097 19.0121H11.0746V21H1.38423ZM16.0923 21.1982C15.4702 21.1982 14.9098 21.0874 14.4112 20.8658C13.9169 20.6399 13.5249 20.3075 13.2351 19.8686C12.9496 19.4297 12.8068 18.8885 12.8068 18.245C12.8068 17.6911 12.9091 17.233 13.1136 16.8707C13.3182 16.5085 13.5973 16.2188 13.951 16.0014C14.3047 15.7841 14.7031 15.62 15.1463 15.5092C15.5938 15.3942 16.0561 15.3111 16.5334 15.2599C17.1087 15.2003 17.5753 15.147 17.9332 15.1001C18.2912 15.049 18.5511 14.9723 18.7131 14.87C18.8793 14.7635 18.9624 14.5994 18.9624 14.3778V14.3395C18.9624 13.858 18.8196 13.4851 18.5341 13.2209C18.2486 12.9567 17.8374 12.8246 17.3004 12.8246C16.7337 12.8246 16.2841 12.9482 15.9517 13.1953C15.6236 13.4425 15.402 13.7344 15.2869 14.071L13.1264 13.7642C13.2969 13.1676 13.5781 12.669 13.9702 12.2685C14.3622 11.8636 14.8416 11.5611 15.4084 11.3608C15.9751 11.1562 16.6016 11.054 17.2876 11.054C17.7607 11.054 18.2315 11.1094 18.7003 11.2202C19.169 11.331 19.5973 11.5142 19.9851 11.7699C20.3729 12.0213 20.6839 12.3643 20.9183 12.799C21.157 13.2337 21.2763 13.777 21.2763 14.429V21H19.0518V19.6513H18.9751C18.8345 19.924 18.6364 20.1797 18.3807 20.4183C18.1293 20.6527 17.8118 20.8423 17.4283 20.9872C17.049 21.1278 16.6037 21.1982 16.0923 21.1982ZM16.6932 19.4979C17.1577 19.4979 17.5604 19.4062 17.9013 19.223C18.2422 19.0355 18.5043 18.7884 18.6875 18.4815C18.875 18.1747 18.9688 17.8402 18.9688 17.478V16.321C18.8963 16.3807 18.7727 16.4361 18.598 16.4872C18.4276 16.5384 18.2358 16.5831 18.0227 16.6214C17.8097 16.6598 17.5987 16.6939 17.3899 16.7237C17.1811 16.7536 17 16.7791 16.8466 16.8004C16.5014 16.8473 16.1925 16.924 15.9197 17.0305C15.647 17.1371 15.4318 17.2862 15.2741 17.478C15.1165 17.6655 15.0376 17.9084 15.0376 18.2067C15.0376 18.6328 15.1932 18.9545 15.5043 19.1719C15.8153 19.3892 16.2116 19.4979 16.6932 19.4979ZM23.603 24.6818V11.1818H25.8786V12.8054H26.0128C26.1321 12.5668 26.3004 12.3132 26.5178 12.0447C26.7351 11.772 27.0291 11.5398 27.3999 11.348C27.7706 11.152 28.2436 11.054 28.8189 11.054C29.5774 11.054 30.2614 11.2479 30.8707 11.6357C31.4844 12.0192 31.9702 12.5881 32.3281 13.3423C32.6903 14.0923 32.8714 15.0128 32.8714 16.1037C32.8714 17.1818 32.6946 18.098 32.3409 18.8523C31.9872 19.6065 31.5057 20.1818 30.8963 20.5781C30.2869 20.9744 29.5966 21.1726 28.8253 21.1726C28.2628 21.1726 27.7962 21.0788 27.4254 20.8913C27.0547 20.7038 26.7564 20.478 26.5305 20.2138C26.3089 19.9453 26.1364 19.6918 26.0128 19.4531H25.9169V24.6818H23.603ZM25.8722 16.0909C25.8722 16.7259 25.9616 17.282 26.1406 17.7592C26.3239 18.2365 26.5859 18.6094 26.9268 18.8778C27.272 19.142 27.6896 19.2741 28.1797 19.2741C28.6911 19.2741 29.1193 19.1378 29.4645 18.8651C29.8097 18.5881 30.0696 18.2109 30.2443 17.7337C30.4233 17.2521 30.5128 16.7045 30.5128 16.0909C30.5128 15.4815 30.4254 14.9403 30.2507 14.4673C30.076 13.9943 29.8161 13.6236 29.4709 13.3551C29.1257 13.0866 28.6953 12.9524 28.1797 12.9524C27.6854 12.9524 27.2656 13.0824 26.9205 13.3423C26.5753 13.6023 26.3132 13.9666 26.1342 14.4354C25.9595 14.9041 25.8722 15.456 25.8722 16.0909Z" fill="#121217"/>
<g clip-path="url(#clip0_858_62546)">
<path d="M42.9984 9C42.666 9 42.3633 9.1707 41.7578 9.51211L39.6391 10.7067C39.0336 11.0481 38.7309 11.2188 38.5647 11.5C38.3984 11.7812 38.3984 12.1226 38.3984 12.8054V15.1946C38.3984 15.5349 38.7435 15.7462 39.0543 15.6075C39.9624 15.2022 40.8888 14.8306 41.8314 14.494C41.8999 14.4808 41.971 14.4904 42.0332 14.5213C42.0955 14.5522 42.1453 14.6026 42.1749 14.6644C42.2044 14.7262 42.2119 14.7959 42.1962 14.8624C42.1804 14.9289 42.1423 14.9883 42.088 15.0312C41.2392 15.5323 40.4121 16.0644 39.6081 16.626C39.3667 16.7947 39.3826 17.1486 39.6391 17.2933L41.7578 18.4879C42.3633 18.8293 42.666 19 42.9984 19C43.3309 19 43.6336 18.8293 44.2391 18.4879L46.3578 17.2933C46.9633 16.9519 47.266 16.7812 47.4322 16.5C47.5984 16.2188 47.5984 15.8774 47.5984 15.1946V12.8054C47.5984 12.1226 47.5984 11.7812 47.4322 11.5C47.266 11.2188 46.9633 11.0481 46.3578 10.7067L44.2391 9.51211C43.6336 9.1707 43.3309 9 42.9984 9Z" fill="#0065F5"/>
<path d="M44.6767 11.4281C44.8086 11.0798 44.8745 10.9056 44.99 10.8988C44.9972 10.8983 45.0044 10.8983 45.0116 10.8988C45.1271 10.9056 45.193 11.0798 45.3249 11.4281L45.4929 11.8718C45.5193 11.9416 45.5325 11.9764 45.558 12.0023C45.5598 12.0041 45.5616 12.0059 45.5634 12.0076C45.5901 12.0324 45.6261 12.0452 45.6979 12.0708L46.155 12.2339C46.514 12.3619 46.6934 12.4259 46.7005 12.538C46.7009 12.5449 46.7009 12.5519 46.7005 12.5589C46.6934 12.671 46.514 12.735 46.155 12.863L45.6979 13.026C45.6261 13.0517 45.5901 13.0645 45.5634 13.0893C45.5616 13.091 45.5598 13.0928 45.558 13.0945C45.5325 13.1205 45.5193 13.1553 45.4929 13.225L45.3249 13.6687C45.193 14.0171 45.1271 14.1913 45.0116 14.1981C45.0044 14.1985 44.9972 14.1985 44.99 14.1981C44.8745 14.1913 44.8086 14.0171 44.6767 13.6687L44.5087 13.225C44.4823 13.1553 44.4691 13.1205 44.4435 13.0945C44.4418 13.0928 44.44 13.091 44.4381 13.0893C44.4114 13.0645 44.3755 13.0517 44.3037 13.026L43.8465 12.863C43.4876 12.735 43.3082 12.671 43.3011 12.5589C43.3007 12.5519 43.3007 12.5449 43.3011 12.538C43.3082 12.4259 43.4876 12.3619 43.8465 12.2339L44.3037 12.0708C44.3755 12.0452 44.4114 12.0324 44.4381 12.0076C44.44 12.0059 44.4418 12.0041 44.4435 12.0023C44.4691 11.9764 44.4823 11.9416 44.5087 11.8718L44.6767 11.4281Z" fill="white"/>
</g>
<defs>
<clipPath id="clip0_858_62546">
<rect width="10" height="10" fill="white" transform="translate(38 9)"/>
</clipPath>
</defs>
</svg>
