<?xml version="1.0" encoding="UTF-8"?>
<svg version="1.1" xmlns="http://www.w3.org/2000/svg" width="1237" height="1234">
<path d="M0 0 C408.21 0 816.42 0 1237 0 C1237 407.22 1237 814.44 1237 1234 C828.79 1234 420.58 1234 0 1234 C0 826.78 0 419.56 0 0 Z " fill="#E30613" transform="translate(0,0)"/>
<path d="M0 0 C1.91026978 0.00845947 1.91026978 0.00845947 3.85913086 0.01708984 C38.33125709 0.45755853 68.80983197 12.28264421 94 36 C106.52206925 48.95739682 115.23953463 65.03236005 119.9375 82.3125 C120.28039062 83.21871094 120.62328125 84.12492187 120.9765625 85.05859375 C123.48999742 93.56953394 123.1520656 102.68636877 123.17773438 111.48754883 C123.18740029 113.47945163 123.21858861 115.47121205 123.25 117.46289062 C123.40686712 157.1698808 103.48764515 199.85958772 78.9375 230.3125 C78.19886719 231.24191406 77.46023438 232.17132813 76.69921875 233.12890625 C68.54760946 243.2515437 59.74548938 252.68525842 50.5625 261.875 C49.69367188 262.75607422 48.82484375 263.63714844 47.9296875 264.54492188 C42.67044341 269.81583589 37.23207311 274.66480016 31.41992188 279.31811523 C28.85077485 281.38217523 26.37524536 283.52580154 23.90844727 285.70947266 C10.9080548 297.18028543 -3.52737504 306.90470947 -18.0625 316.3125 C-18.79049805 316.7854248 -19.51849609 317.25834961 -20.26855469 317.74560547 C-31.60481995 325.08575363 -43.09179879 332.05237799 -55.0625 338.3125 C-55.8040332 338.70034668 -56.54556641 339.08819336 -57.30957031 339.48779297 C-66.79707172 344.37498322 -76.4473753 348.34387061 -86.5625 351.75 C-87.54105957 352.08016113 -88.51961914 352.41032227 -89.52783203 352.75048828 C-99.37733172 355.94343042 -108.8292603 357.66006584 -119.1875 357.5625 C-120.01636719 357.57023437 -120.84523438 357.57796875 -121.69921875 357.5859375 C-132.53848546 357.55201178 -141.64843205 355.12500485 -149.875 347.8125 C-150.596875 346.9875 -151.31875 346.1625 -152.0625 345.3125 C-152.743125 344.549375 -153.42375 343.78625 -154.125 343 C-162.48721655 331.4007964 -164.27069531 318.2715333 -163.0625 304.3125 C-162.42091465 300.48288204 -161.33153337 296.97574207 -160.0625 293.3125 C-159.73378906 292.17683594 -159.40507812 291.04117187 -159.06640625 289.87109375 C-151.34138582 264.23685642 -133.07654884 240.64420366 -109.375 227.86328125 C-107.28597883 226.91404697 -105.22841862 226.06728982 -103.0625 225.3125 C-102.14726563 224.96058594 -101.23203125 224.60867188 -100.2890625 224.24609375 C-90.6802929 221.46583233 -80.54154073 222.5191981 -71.62109375 226.828125 C-65.72907945 230.24639284 -60.1337098 234.5384256 -58.0625 241.3125 C-56.84529089 250.08559204 -57.98492455 257.03503823 -63.0625 264.3125 C-65.87126448 267.84737795 -68.90320567 271.0897268 -72.0625 274.3125 C-72.96871094 275.24578125 -73.87492188 276.1790625 -74.80859375 277.140625 C-78.72449152 281.13486798 -82.67912088 285.05667148 -86.9375 288.6875 C-102.30692427 301.91089307 -102.30692427 301.91089307 -112.0625 319.3125 C-112.31253964 322.85428598 -112.31253964 322.85428598 -112.0625 326.3125 C-109.3784874 328.9965126 -107.8909959 328.77051302 -104.125 328.9375 C-94.13242679 328.78423967 -85.90386566 324.64374705 -77.0625 320.3125 C-75.96518555 319.78342041 -75.96518555 319.78342041 -74.84570312 319.24365234 C-37.86857594 301.21856687 -0.6240071 270.2183195 23.9375 237.3125 C24.36434082 236.75143555 24.79118164 236.19037109 25.23095703 235.61230469 C37.14190687 219.9446005 48.31094918 202.9638162 54.9375 184.3125 C55.21207031 183.57902344 55.48664063 182.84554687 55.76953125 182.08984375 C61.63962754 165.69405756 62.22122345 147.11073841 55.25 130.9375 C51.08924793 123.46705879 43.90997102 118.90508521 35.9375 116.3125 C32.39646795 115.75563727 28.95469157 115.69179363 25.375 115.75 C24.41045898 115.76095703 23.44591797 115.77191406 22.45214844 115.78320312 C13.57775019 116.04846245 6.09064687 117.92391758 -2.0625 121.3125 C-3.09673096 121.73063965 -3.09673096 121.73063965 -4.15185547 122.15722656 C-33.10075678 133.99370285 -59.52723657 150.90158885 -85.19750977 168.578125 C-116.41537835 190.05939474 -149.01240116 208.10342235 -188.0625 205.3125 C-192.13721282 204.52282697 -195.43078771 203.29399167 -199.0625 201.3125 C-199.92875 200.86519531 -200.795 200.41789063 -201.6875 199.95703125 C-211.91870309 194.27810454 -217.98446518 187.00758706 -222.3125 176.1875 C-227.55151889 156.10459426 -220.39250287 135.81290613 -210.29931641 118.51342773 C-197.71635744 97.6642699 -181.59276447 79.82183612 -162.0625 65.3125 C-161.43520996 64.84618164 -160.80791992 64.37986328 -160.16162109 63.89941406 C-133.65014466 44.36605317 -104.77177582 27.30194603 -74.0625 15.3125 C-73.27311035 14.99732422 -72.4837207 14.68214844 -71.67041016 14.35742188 C-56.89890187 8.52552205 -41.63500718 5.26309267 -26.0625 2.3125 C-25.06677979 2.11454834 -24.07105957 1.91659668 -23.04516602 1.71264648 C-15.3398917 0.27855791 -7.82823051 -0.03653418 0 0 Z " fill="#FEFEFD" transform="translate(670.0625,272.6875)"/>
<path d="M0 0 C12.19450923 10.0352791 17.18621788 23.98612504 19.44140625 39.15625 C19.72475793 42.58632981 19.80362497 46.00117405 19.84301758 49.44189453 C19.86097885 50.40440125 19.87894012 51.36690796 19.89744568 52.35858154 C19.95159291 55.50203654 19.98995271 58.64532225 20.0234375 61.7890625 C20.035333 62.87099758 20.04722851 63.95293266 20.05948448 65.06765366 C20.11849189 70.78383132 20.16242462 76.49993196 20.1965332 82.21630859 C20.22778136 86.93078316 20.29064951 91.6432294 20.38110352 96.35693359 C20.49071869 102.07573762 20.54613222 107.79267117 20.56293297 113.51247787 C20.57816707 115.68230318 20.61212623 117.85208449 20.6655674 120.02130508 C21.08040345 137.82886733 21.08040345 137.82886733 17.04425049 142.45178223 C14.27067381 144.75879364 11.6321961 146.49144192 8.44140625 148.15625 C7.21158685 148.96905177 5.98442678 149.78591428 4.76171875 150.609375 C-2.7817717 154.85143564 -10.34521806 158.37259303 -18.55859375 161.15625 C-19.45578125 161.46433594 -20.35296875 161.77242187 -21.27734375 162.08984375 C-30.97591922 165.21793368 -40.69635365 165.39202576 -50.82299805 165.45141602 C-52.18312999 165.46292744 -53.54321704 165.48336664 -54.90307617 165.51293945 C-72.54863789 165.89454578 -86.59840051 160.05194623 -99.984375 148.6328125 C-107.52415499 141.37906362 -112.16826838 132.98556542 -115.55859375 123.15625 C-115.92339844 122.10050781 -116.28820312 121.04476562 -116.6640625 119.95703125 C-120.09111699 105.39579099 -118.41855223 89.97804998 -110.76171875 77.14453125 C-101.47892544 63.53595626 -87.75416231 54.47710791 -71.55859375 51.15625 C-65.73950562 50.30012749 -60.12237489 50.02123277 -54.24609375 50.05859375 C-53.39176758 50.0600087 -52.53744141 50.06142365 -51.65722656 50.06288147 C-48.95764502 50.06843038 -46.25814976 50.08097303 -43.55859375 50.09375 C-41.71614704 50.09877161 -39.87369902 50.10333336 -38.03125 50.10742188 C-33.54033189 50.11838301 -29.04947739 50.13561175 -24.55859375 50.15625 C-24.81492645 47.27929235 -25.08811438 44.40560733 -25.37109375 41.53125 C-25.44134766 40.72300781 -25.51160156 39.91476562 -25.58398438 39.08203125 C-26.2389163 32.63750112 -27.60127371 28.11357004 -32.30859375 23.40625 C-40.59390471 17.67026549 -50.31502243 18.31671894 -60.015625 19.62109375 C-68.58245417 21.27571561 -76.54800678 24.17943457 -84.62402344 27.39453125 C-87.91925587 28.69199783 -91.23996797 29.9200435 -94.55859375 31.15625 C-96.40114891 27.22300061 -98.23104094 23.28398978 -100.05859375 19.34375 C-100.58324219 18.22419922 -101.10789062 17.10464844 -101.6484375 15.95117188 C-102.14472656 14.87802734 -102.64101563 13.80488281 -103.15234375 12.69921875 C-103.61318359 11.70946045 -104.07402344 10.71970215 -104.54882812 9.69995117 C-105.55859375 7.15625 -105.55859375 7.15625 -105.55859375 4.15625 C-94.4427641 -1.35571675 -83.52395443 -6.43842972 -71.55859375 -9.84375 C-70.01171875 -10.32134766 -70.01171875 -10.32134766 -68.43359375 -10.80859375 C-45.39475078 -16.93534488 -19.45564676 -14.01994698 0 0 Z " fill="#FEFDFC" transform="translate(395.55859375,797.84375)"/>
<path d="M0 0 C1.25876953 0.00773438 1.25876953 0.00773438 2.54296875 0.015625 C13.36762105 0.60187309 25.69643877 6.18416016 34 13 C34.598125 13.48726562 35.19625 13.97453125 35.8125 14.4765625 C51.73045244 28.90220689 56.89318887 52.41331302 58 73 C58 79.6 58 86.2 58 93 C12.46 93.495 12.46 93.495 -34 94 C-34 109.00803756 -33.62598196 126.84661292 -22.625 138.53515625 C-14.52224363 145.83932365 -4.55509835 146.4744629 5.9609375 146.31640625 C18.5080737 145.5867796 31.30988198 141.02706438 42.0625 134.6875 C45 133 45 133 48 133 C49.90080954 136.73745674 51.76600325 140.49159352 53.625 144.25 C54.43710937 145.84521484 54.43710937 145.84521484 55.265625 147.47265625 C55.76835938 148.49746094 56.27109375 149.52226563 56.7890625 150.578125 C57.26037598 151.52075195 57.73168945 152.46337891 58.21728516 153.43457031 C59 156 59 156 58.37060547 158.19091797 C56.82030374 160.2371837 55.5384967 161.15670914 53.28125 162.3671875 C52.52295898 162.77517578 51.76466797 163.18316406 50.98339844 163.60351562 C50.16387695 164.02310547 49.34435547 164.44269531 48.5 164.875 C47.65211914 165.31263672 46.80423828 165.75027344 45.93066406 166.20117188 C21.83161931 178.29983951 -6.17238145 182.50497048 -32.13671875 173.96875 C-51.35415197 166.68531821 -62.95148251 152.01693615 -71.65234375 134.03515625 C-77.82350769 120.13662182 -79.33852604 106.66356635 -79.25 91.5625 C-79.25773438 90.24701172 -79.26546875 88.93152344 -79.2734375 87.57617188 C-79.22827971 64.76019877 -73.9840298 39.27466575 -58 22 C-57.28457031 21.18273437 -56.56914063 20.36546875 -55.83203125 19.5234375 C-40.42156039 2.88113455 -21.75417545 -0.42230328 0 0 Z " fill="#FEFDFD" transform="translate(806,786)"/>
<path d="M0 0 C0 15.51 0 31.02 0 47 C9.57 47 19.14 47 29 47 C29 57.56 29 68.12 29 79 C19.43 79 9.86 79 0 79 C0.04037874 91.49199754 0.09752993 103.98361311 0.18390274 116.47537899 C0.22334859 122.27632182 0.25555142 128.0771135 0.27099609 133.87817383 C0.28618148 139.48046626 0.3206611 145.08234308 0.36830902 150.68445015 C0.3831033 152.81773827 0.39103989 154.95108573 0.39188385 157.08442497 C0.39426108 160.08138801 0.42140234 163.07720949 0.45410156 166.07397461 C0.4490712 166.94863876 0.44404083 167.82330292 0.43885803 168.72447205 C0.55942725 175.90468973 2.25879703 182.25879703 7.4375 187.4375 C12.39468342 190.46017281 16.51234282 191.29975754 22.3125 191.625 C25.6228125 191.810625 25.6228125 191.810625 29 192 C29 201.24 29 210.48 29 220 C9.29183848 222.81545165 -10.81124713 222.1660556 -27.53515625 210.18359375 C-38.18735491 201.38085863 -42.79320686 189.42696381 -44.22323322 175.88623428 C-44.55747187 170.72444475 -44.50325441 165.56417917 -44.45410156 160.39453125 C-44.45296985 158.69761177 -44.45361324 157.00069033 -44.45587158 155.30377197 C-44.45700705 150.75096858 -44.43368965 146.19859716 -44.40557575 141.6458931 C-44.3803648 136.86803702 -44.37820472 132.0901682 -44.37347412 127.31225586 C-44.36110169 118.28870598 -44.32835867 109.26535276 -44.28807616 100.241889 C-44.24317875 89.95879105 -44.22132647 79.67568312 -44.20129442 69.39251137 C-44.15962017 48.261565 -44.08938107 27.13079495 -44 6 C-38.8599785 5.13830062 -33.71879233 4.28405701 -28.57641602 3.43652344 C-26.82933626 3.14752551 -25.08258438 2.85653786 -23.33618164 2.56347656 C-20.81741785 2.14116886 -18.29753888 1.7261693 -15.77734375 1.3125 C-15.00414291 1.18125732 -14.23094208 1.05001465 -13.43431091 0.91479492 C-12.69407181 0.79467041 -11.9538327 0.6745459 -11.19116211 0.55078125 C-10.54940536 0.44419189 -9.90764862 0.33760254 -9.2464447 0.2277832 C-6.1790894 -0.08323804 -3.08308332 0 0 0 Z " fill="#FEFDFD" transform="translate(683,741)"/>
<path d="M0 0 C0.00146656 0.91514374 0.00293312 1.83028748 0.00444412 2.77316284 C0.04150952 25.04940317 0.10052081 47.32549133 0.18390274 69.60160828 C0.2236976 80.37421923 0.25608786 91.14675708 0.27099609 101.91943359 C0.28401025 111.30983721 0.310969 120.70008002 0.35461307 130.09039307 C0.37723307 135.06167261 0.39291035 140.03275378 0.39188385 145.00408936 C0.39113756 149.68600367 0.40907588 154.36747935 0.44116783 159.04928017 C0.44966658 160.76488557 0.45141692 162.48054018 0.44580269 164.19615746 C0.21886199 176.22260007 0.21886199 176.22260007 5 187 C9.66379086 190.84852191 14.54233884 191.73047238 20.4375 192.25 C24.1809375 192.62125 24.1809375 192.62125 28 193 C28 202.24 28 211.48 28 221 C9.16991705 223.69001185 -10.36716779 223.69985955 -26.41015625 212.28515625 C-32.38361815 207.4086573 -35.82246624 201.97007404 -39 195 C-39.31710937 194.3090625 -39.63421875 193.618125 -39.9609375 192.90625 C-44.41043736 182.1569632 -44.2820275 170.75196808 -44.22705078 159.3293457 C-44.22648561 157.67257189 -44.2268053 156.01579757 -44.22793579 154.35902405 C-44.22850615 149.89283105 -44.21680344 145.42674699 -44.20278788 140.96057916 C-44.19022742 136.28143898 -44.18910585 131.60229591 -44.18673706 126.92314148 C-44.18053784 118.07657528 -44.16414824 109.23005891 -44.14403808 100.38351458 C-44.12163041 90.30607008 -44.11067344 80.22862312 -44.10064721 70.15115988 C-44.07978054 49.43407885 -44.04463505 28.71704257 -44 8 C-36.30721895 5.78091567 -36.30721895 5.78091567 -33.02416992 5.22216797 C-32.3304277 5.10219452 -31.63668549 4.98222107 -30.92192078 4.85861206 C-29.83715202 4.6772319 -29.83715202 4.6772319 -28.73046875 4.4921875 C-27.96825516 4.36184113 -27.20604156 4.23149475 -26.42073059 4.09719849 C-24.82352431 3.8248407 -23.22599914 3.55434692 -21.62817383 3.28564453 C-19.17648967 2.87314751 -16.72589036 2.45462659 -14.27539062 2.03515625 C-12.71880947 1.77048334 -11.16217083 1.50614827 -9.60546875 1.2421875 C-8.87216843 1.11721893 -8.1388681 0.99225037 -7.38334656 0.86349487 C-2.23301697 0 -2.23301697 0 0 0 Z " fill="#FEFCFC" transform="translate(934,740)"/>
<path d="M0 0 C-0.98459487 5.8405721 -3.39914166 10.87777456 -5.8125 16.25 C-6.25142578 17.26835938 -6.69035156 18.28671875 -7.14257812 19.3359375 C-7.57634766 20.30273438 -8.01011719 21.26953125 -8.45703125 22.265625 C-8.84866455 23.15024414 -9.24029785 24.03486328 -9.64379883 24.94628906 C-11 27 -11 27 -12.97924805 27.82202148 C-15.77032229 28.06784644 -18.25108807 27.51198485 -21 27 C-30.4883549 26.23033291 -39.16089447 27.39495587 -48 31 C-48.82307585 31.32959528 -49.6461517 31.65919056 -50.49416924 31.99877357 C-53.42375988 33.41349746 -55.63968311 34.7496407 -58 37 C-59.48127734 41.30815295 -59.3247073 45.46134081 -59.22705078 49.98193359 C-59.23826462 51.28978821 -59.24947845 52.59764282 -59.2610321 53.94512939 C-59.29056059 57.52008072 -59.25881875 61.09214545 -59.21586847 64.66686201 C-59.18142064 68.4065509 -59.20359187 72.14589933 -59.21969604 75.88565063 C-59.24159683 82.96200035 -59.21275494 90.03719243 -59.165573 97.11338198 C-59.11432259 105.17148524 -59.11980366 113.22923965 -59.12999368 121.28746295 C-59.14968096 137.8588788 -59.09082126 154.42876535 -59 171 C-73.52 171 -88.04 171 -103 171 C-103.15809318 152.47599577 -103.28700628 133.95253878 -103.3626852 115.42803097 C-103.39876024 106.8265306 -103.44793151 98.22547953 -103.52807617 89.62426758 C-103.59790773 82.12628598 -103.64302189 74.62862981 -103.65861946 67.13033205 C-103.66773549 63.16085396 -103.68911513 59.19230671 -103.7401104 55.22312737 C-103.78775749 51.48412631 -103.80225509 47.74643601 -103.79175377 44.00716019 C-103.79458668 41.98657222 -103.83218877 39.9661259 -103.87094116 37.94590759 C-103.7921515 28.01519451 -103.7921515 28.01519451 -99.63343811 23.78956604 C-98.44836813 22.82669802 -97.23819463 21.89352098 -96 21 C-95.03320312 20.15695312 -94.06640625 19.31390625 -93.0703125 18.4453125 C-81.02215149 8.95379043 -68.01002437 1.61687334 -53 -2 C-52.12988281 -2.21140625 -51.25976562 -2.4228125 -50.36328125 -2.640625 C-33.14577614 -6.42469206 -16.70063306 -5.22654455 0 0 Z " fill="#FEFEFD" transform="translate(627,790)"/>
<path d="M0 0 C0 57.09 0 114.18 0 173 C-14.52 173 -29.04 173 -44 173 C-44 118.22 -44 63.44 -44 7 C-21.77777778 2.55555556 -21.77777778 2.55555556 -11.87109375 1.39453125 C-1.72277228 0 -1.72277228 0 0 0 Z " fill="#FEFAF9" transform="translate(490,788)"/>
<path d="M0 0 C7.31829665 4.26701987 12.38458565 9.72247989 14.75 17.9375 C16.56027174 27.32232979 15.83886921 34.77302462 10.49609375 42.83203125 C6.16788825 48.16983977 1.30940227 51.27410304 -5.3125 53.0625 C-15.04917151 53.97465005 -22.55572369 53.76069554 -30.203125 47.51953125 C-36.40668852 41.82424289 -39.40923323 36.72571602 -39.7824707 28.19628906 C-39.87837115 21.38189954 -39.43363293 15.69663627 -35.3125 10.0625 C-34.77625 9.19625 -34.24 8.33 -33.6875 7.4375 C-24.76599425 -1.48400575 -11.87963826 -5.36797319 0 0 Z " fill="#FEFCFC" transform="translate(480.3125,720.9375)"/>
<path d="M0 0 C0 16.83 0 33.66 0 51 C-9.91729619 55.9586481 -20.46376171 58.1766752 -31.54296875 55.3515625 C-38.27517613 52.30448991 -42.63383897 46.6843747 -45.39575195 39.94702148 C-46.45201591 36.54350429 -46.48873144 33.22807289 -46.4375 29.6875 C-46.42847656 28.94129395 -46.41945313 28.19508789 -46.41015625 27.42626953 C-46.18744652 20.2980115 -45.04327259 14.39940023 -40.1640625 8.94921875 C-27.94937249 -2.35287948 -17.43166954 0 0 0 Z " fill="#E30814" transform="translate(370,877)"/>
<path d="M0 0 C7.20210285 6.84199771 10.43924746 13.40392613 11.5 23.375 C11.5 26.015 11.5 28.655 11.5 31.375 C-3.68 31.375 -18.86 31.375 -34.5 31.375 C-34.5 20.62194709 -32.25491899 11.20222592 -24.5 3.375 C-17.74541224 -2.94679953 -8.33969407 -3.87200082 0 0 Z " fill="#E30814" transform="translate(807.5,820.625)"/>
</svg>
