<svg width="20" height="20" viewBox="0 0 20 20" fill="none" xmlns="http://www.w3.org/2000/svg">
<path d="M0 9.48C0 6.23285 0 4.60927 0.611835 3.36037C1.19764 2.16458 2.16458 1.19764 3.36037 0.611835C4.60927 0 6.23285 0 9.48 0H10.52C13.7672 0 15.3907 0 16.6396 0.611835C17.8354 1.19764 18.8024 2.16458 19.3882 3.36037C20 4.60927 20 6.23285 20 9.48V10.52C20 13.7672 20 15.3907 19.3882 16.6396C18.8024 17.8354 17.8354 18.8024 16.6396 19.3882C15.3907 20 13.7672 20 10.52 20H9.48C6.23285 20 4.60927 20 3.36037 19.3882C2.16458 18.8024 1.19764 17.8354 0.611835 16.6396C0 15.3907 0 13.7672 0 10.52V9.48Z" fill="#0052FF"/>
<path fill-rule="evenodd" clip-rule="evenodd" d="M10 17.1C13.9212 17.1 17.1 13.9212 17.1 10C17.1 6.07878 13.9212 2.9 10 2.9C6.07878 2.9 2.9 6.07878 2.9 10C2.9 13.9212 6.07878 17.1 10 17.1ZM8.3 7.75C7.99624 7.75 7.75 7.99624 7.75 8.3V11.75C7.75 12.0538 7.99624 12.3 8.3 12.3H11.75C12.0538 12.3 12.3 12.0538 12.3 11.75V8.3C12.3 7.99624 12.0538 7.75 11.75 7.75H8.3Z" fill="white"/>
</svg>
