<svg width="120" height="14" viewBox="0 0 120 14" fill="none" xmlns="http://www.w3.org/2000/svg">
<path d="M13.4495 0.371094V13.6288H10.0968V5.40027C10.0968 4.47496 9.34655 3.72394 8.42028 3.72394C7.4945 3.72394 6.74396 4.47448 6.74396 5.40027V13.6288H0V0.371094H13.4495Z" fill="#43B9FB"/>
<path d="M15.2207 0.371094V13.6369H28.6702V0.371094H15.2207ZM22.0622 11.2927L17.7735 7.00389L22.0622 2.71512L26.351 7.00389L22.0622 11.2927Z" fill="#8B85F4"/>
<path d="M41.2117 5.66502V0.378906H30.4434V13.6367H43.8928V5.66502H41.2117ZM33.1679 3.06558H38.4862V5.66502H33.1679V3.06558ZM41.1673 10.95H33.1679V8.3517L41.1673 8.35055V10.95Z" fill="#43B9FB"/>
<path d="M59.1135 10.2838V13.6367H45.6641V0.378906H49.0167V10.2838H59.1135Z" fill="#43B9FB"/>
<path d="M60.8867 0.371094V13.6369H74.3362V0.371094H60.8867ZM67.7282 11.2927L63.4395 7.00389L67.7282 2.71512L72.017 7.00389L67.7282 11.2927Z" fill="#8B85F4"/>
<path d="M79.4601 3.73175V10.2838H89.5569V13.6367H76.1074V0.378906H89.5569V3.73175H79.4601Z" fill="#43B9FB"/>
<path d="M98.1159 6.99643L104.763 13.6438H100.022L94.679 8.30141V13.6438H91.3262V0.378938H94.679V5.68782L100.016 0.371094H104.766L98.1159 6.99643Z" fill="#43B9FB"/>
<path d="M109.245 3.06558V5.65698H120.008V13.6367H106.559V10.95H117.327V8.34366H106.559V0.378906H120.008V3.06558H109.245Z" fill="#43B9FB"/>
</svg>
